<svg width="700" height="270" xmlns="http://www.w3.org/2000/svg">
 <!-- Created with Method Draw - http://github.com/duopixel/Method-Draw/ -->

 <g>
  <title>background</title>
  <rect x="-1" y="-1" width="702" height="272" id="canvas_background" fill="#fff"/>
  <g id="canvasGrid" display="none">
   <rect id="svg_4" width="100%" height="100%" x="0" y="0" stroke-width="0" fill="url(#gridpattern)"/>
  </g>
 </g>
 <g>
  <title>Layer 1</title>
  <rect fill="#000000" stroke="#000" x="0" y="0" width="700" height="270" id="svg_1"/>
  <rect fill="#fff" stroke-width="1.5" x="664.5" y="481" width="1" height="0" id="svg_2" stroke="#000"/>
  <rect fill="#fff" stroke="#000" stroke-width="1.5" stroke-opacity="null" fill-opacity="null" x="70" y="70" width="70" height="200" id="svg_3"/>
  <rect fill="#fff" stroke="#000" stroke-width="1.5" stroke-opacity="null" fill-opacity="null" x="140" y="70" width="70" height="200" id="svg_6"/>
  <rect fill="#fff" stroke="#000" stroke-width="1.5" stroke-opacity="null" fill-opacity="null" x="210" y="70" width="70" height="200" id="svg_7"/>
  <rect fill="#fff" stroke="#000" stroke-width="1.5" stroke-opacity="null" fill-opacity="null" x="280" y="70" width="70" height="200" id="svg_8"/>
  <rect fill="#fff" stroke="#000" stroke-width="1.5" stroke-opacity="null" fill-opacity="null" x="350" y="70" width="70" height="200" id="svg_9"/>
  <rect fill="#fff" stroke="#000" stroke-width="1.5" stroke-opacity="null" fill-opacity="null" x="420" y="70" width="70" height="200" id="svg_10"/>
  <rect fill="#fff" stroke="#000" stroke-width="1.5" stroke-opacity="null" fill-opacity="null" x="490" y="70" width="70" height="200" id="svg_11"/>
  <rect fill="#fff" stroke="#000" stroke-width="1.5" stroke-opacity="null" fill-opacity="null" x="560" y="70" width="70" height="200" id="svg_12"/>
  <rect fill="#000000" stroke="#000" stroke-opacity="null" x="193" y="68" width="35" height="100" id="svg_14"/>
  <rect fill="#000000" stroke="#000" stroke-opacity="null" x="332" y="70" width="35" height="100" id="svg_15"/>
  <rect fill="#000000" stroke="#000" stroke-opacity="null" x="403" y="70" width="35" height="100" id="svg_16"/>
  <rect fill="#000000" stroke="#000" stroke-opacity="null" x="473" y="70" width="35" height="100" id="svg_17"/>
  <rect fill="#000000" stroke="#000" stroke-opacity="null" x="123.535534" y="70" width="35" height="100" id="svg_20"/>
 </g>
</svg>